<?xml version="1.0" encoding="UTF-8"?><svg xmlns="http://www.w3.org/2000/svg" viewBox="0 0 100 100"><defs><style>.cls-1{fill:#cab090;}.cls-2{fill:#bc7d45;}.cls-3{fill:#dea966;}.cls-4{isolation:isolate;}.cls-5{fill:#fedda8;}.cls-6{fill:#e9e8e8;}.cls-7{fill:#f9c98a;}.cls-8{fill:#4ba534;}.cls-9{fill:#9b7551;}.cls-10{mix-blend-mode:multiply;}</style></defs><g class="cls-4"><g id="_Слой_1"><g><g class="cls-10"><polygon class="cls-6" points="8.79 72.67 44.25 93.19 79.38 72.92 43.92 52.4 8.79 72.67"/></g><g><path class="cls-5" d="m69.21,24.6l-3.79-2.18-11.81-6.83-30.39,17.55,11.81,6.82,3.8,2.19,13.04,7.53,30.34-17.54h.02s-13.02-7.54-13.02-7.54Z"/><path class="cls-7" d="m53.61,16.2l-29.33,16.94,27.59,15.75,29.3-16.77-27.56-15.92Z"/><polygon class="cls-2" points="51.86 49.68 51.83 88.71 38.74 81.23 34.94 79.06 23.21 72.37 23.21 33.14 51.86 49.68"/><path class="cls-3" d="m51.86,49.68l-.03,39.03,30.41-17.39v-39.18l-30.38,17.54Z"/></g><polygon class="cls-9" points="38.74 42.21 38.74 81.23 34.94 79.06 34.94 40.02 38.74 42.21"/><polygon class="cls-1" points="69.21 24.6 58.59 30.74 54.79 32.95 38.83 42.15 38.72 42.22 34.92 40.02 35.02 39.96 50.99 30.74 54.79 28.54 65.42 22.42 69.21 24.6"/><path class="cls-8" d="m71.88,69.75c.4-2.65,1.92-5,4.18-6.47,1.57-1.02,3.37-1.53,5.22-1.51l-.69-.69c-.32-.32-.32-.83,0-1.15s.83-.32,1.15,0l2.32,2.32c.43.3.46.91.11,1.26l-2.43,2.43c-.32.32-.83.32-1.15,0s-.32-.83,0-1.15l1.35-1.35c-1.77-.17-3.5.24-4.99,1.21-1.86,1.21-3.12,3.16-3.45,5.34-.07.44-.48.75-.93.68-.45-.07-.75-.48-.68-.93Zm12.11,8.65c-2.06.81-4.37.69-6.35-.32-1.58-.81-2.81-2.1-3.54-3.72l1.84.49c.43.12.88-.14,1-.58s-.14-.88-.58-1l-3.32-.89c-.48-.13-.99.2-1.03.71l-.85,3.18c-.12.43.14.88.58,1,.44.12.88-.14,1-.58l.25-.94c.91,1.62,2.25,2.91,3.92,3.77,2.35,1.2,5.15,1.38,7.69.38.42-.16.63-.64.46-1.06-.16-.42-.64-.63-1.06-.46Zm7.2-2.12c-.12-.43-.56-.69-1-.58l-.94.25c.95-1.59,1.4-3.4,1.3-5.28-.14-2.68-1.42-5.18-3.51-6.85-.35-.28-.86-.22-1.15.13-.28.35-.22.86.13,1.15,1.73,1.38,2.78,3.44,2.9,5.66.09,1.77-.42,3.48-1.45,4.93l-.49-1.84c-.12-.43-.56-.69-1-.58-.43.12-.69.56-.58,1l.89,3.32c.13.49.67.76,1.14.54l3.17-.85c.43-.12.69-.56.58-1Z"/></g></g></g></svg>