<?xml version="1.0" encoding="UTF-8"?><svg xmlns="http://www.w3.org/2000/svg" viewBox="0 0 100 100"><defs><style>.cls-1{fill:#bc7d45;}.cls-2{fill:#dea966;}.cls-3{isolation:isolate;}.cls-4{fill:#b2afab;}.cls-5{fill:#4f2e17;}.cls-6{fill:#fedda8;}.cls-7{fill:#e9e8e8;}.cls-8{fill:#f9c98a;}.cls-9{fill:#e4e0dc;}.cls-10{mix-blend-mode:multiply;}</style></defs><g class="cls-3"><g id="_Слой_1"><g><g class="cls-10"><polygon class="cls-7" points="12.68 72.9 45.92 92.1 68.8 78.89 35.56 59.69 12.68 72.9"/></g><path class="cls-6" d="m63.51,13.07h0l-2.09-1.21-8.84-5.11-8.85,5.11-2.1,1.21-8.86,5.12,8.84,5.11,2.1,1.21,8.85,5.12,8.88-5.13,2.11-1.21,8.82-5.09h0s-8.85-5.13-8.85-5.13Z"/><polygon class="cls-8" points="33.18 18.18 52.56 6.99 71.93 18.19 52.54 29.39 33.18 18.18"/><path class="cls-2" d="m63.51,23.3l-2.1,1.21-8.85,5.12v58.52l8.85-5.07,2.1-1.2,8.85-5.07V18.18l-8.85,5.11Z"/><path class="cls-1" d="m43.71,24.5l-2.1-1.21-8.85-5.11v58.61l8.85,5.07,2.1,1.2,8.85,5.07V29.62l-8.85-5.12Z"/><g><g><g><polygon class="cls-5" points="66.38 69.45 66.28 69.51 66.28 67.71 66.38 67.66 66.38 69.45"/><polygon class="cls-5" points="66.75 67.84 66.68 67.96 66.33 67.73 65.99 68.36 65.91 68.32 66.33 67.56 66.75 67.84"/></g><g><polygon class="cls-5" points="67.42 68.86 67.31 68.92 67.31 67.12 67.42 67.06 67.42 68.86"/><polygon class="cls-5" points="67.79 67.24 67.71 67.37 67.37 67.13 67.02 67.76 66.94 67.73 67.37 66.96 67.79 67.24"/></g></g><path class="cls-5" d="m67.81,68.69l-1.93,1.11s-.05,0-.05-.03.02-.07.05-.09l1.93-1.11s.05,0,.05.03c0,.03-.02.07-.05.09Z"/><path class="cls-5" d="m67.79,69.17l-1.89,1.1c-.2.11-.36.02-.36-.21v-2.19c0-.23.16-.51.36-.63l1.89-1.09c.2-.11.36-.02.36.21v2.19c0,.23-.16.51-.36.63Zm-1.89-1.81c-.14.08-.26.28-.26.45v2.19c0,.16.12.23.26.15l1.89-1.1c.14-.08.26-.28.26-.45v-2.19c0-.17-.12-.23-.26-.15l-1.89,1.09Z"/></g><g><path class="cls-5" d="m70.82,67.42l-1.89,1.09c-.2.11-.36.02-.36-.21v-2.19c0-.23.16-.51.36-.63l1.89-1.09c.2-.11.36-.02.36.21v2.19c0,.23-.16.51-.36.63Zm-1.89-1.81c-.14.08-.26.28-.26.45v2.19c0,.16.11.23.26.15l1.89-1.09c.14-.08.26-.28.26-.45v-2.19c0-.16-.12-.23-.26-.15l-1.89,1.09Z"/><g><path class="cls-5" d="m69.88,67.37s-.05,0-.05-.03v-1.56s.02-.07.05-.09c.03-.02.05,0,.05.03v1.57s-.02.07-.05.09Z"/><path class="cls-5" d="m70.11,67.23l-.47.27s-.05,0-.05-.03.02-.07.05-.09l.47-.27s.05,0,.05.03-.02.07-.05.09Z"/><path class="cls-5" d="m70.38,65.25v.73c0,.2-.14.44-.31.54l-.38.22c-.17.1-.31.02-.31-.18v-.73l.19-.11v.78s.02.05.05.03c.03-.02.05-.06.05-.09v-.78l.71-.41Z"/></g></g><g><polygon class="cls-9" points="70.96 74.95 66.18 77.7 66.18 73.6 70.96 70.84 70.96 74.95"/><polygon class="cls-5" points="70.5 72.07 66.63 74.3 66.63 73.85 70.5 71.61 70.5 72.07"/><polygon class="cls-4" points="70.5 72.9 66.63 75.13 66.63 74.93 70.5 72.69 70.5 72.9"/><polygon class="cls-4" points="70.5 73.44 66.63 75.67 66.63 75.47 70.5 73.23 70.5 73.44"/><polygon class="cls-4" points="70.5 74.02 66.63 76.25 66.63 76.05 70.5 73.81 70.5 74.02"/><polygon class="cls-4" points="70.5 74.56 66.63 76.79 66.63 76.59 70.5 74.35 70.5 74.56"/></g></g></g></g></svg>