<?xml version="1.0" encoding="utf-8"?>
<!-- Generator: Adobe Illustrator 27.1.1, SVG Export Plug-In . SVG Version: 6.00 Build 0)  -->
<svg version="1.1" id="Слой_1" xmlns="http://www.w3.org/2000/svg" xmlns:xlink="http://www.w3.org/1999/xlink" x="0px" y="0px"
	 viewBox="0 0 100 100" style="enable-background:new 0 0 100 100;" xml:space="preserve">
<style type="text/css">
	.st0{fill:#E9E8E8;}
	.st1{fill:#FEDDA8;}
	.st2{fill:#F9C98A;}
	.st3{fill:#DEA966;}
	.st4{fill:#BC7D45;}
	.st5{fill:#4BA534;}
</style>
<g>
	<g id="_Слой_1">
		<g>
			<g>
				<polygon class="st0" points="12.7,72.9 45.9,92.1 68.8,78.9 35.6,59.7 				"/>
			</g>
			<path class="st1" d="M63.5,13.1L63.5,13.1l-2.1-1.2l-8.8-5.1l-8.9,5.1l-2.1,1.2l-8.9,5.1l8.8,5.1l2.1,1.2l8.9,5.1l8.9-5.1
				l2.1-1.2l8.8-5.1l0,0L63.5,13.1L63.5,13.1z"/>
			<polygon class="st2" points="33.2,18.2 52.6,7 71.9,18.2 52.5,29.4 			"/>
			<path class="st3" d="M63.5,23.3l-2.1,1.2l-8.9,5.1v58.5l8.8-5.1l2.1-1.2l8.8-5.1V18.2L63.5,23.3L63.5,23.3z"/>
			<path class="st4" d="M43.7,24.5l-2.1-1.2l-8.8-5.1v58.6l8.8,5.1l2.1,1.2l8.8,5.1V29.6L43.7,24.5z"/>
		</g>
	</g>
</g>
<path class="st5" d="M63.9,75.2c0.3-2.1,1.5-4,3.3-5.2c1.3-0.8,2.7-1.2,4.2-1.2l-0.6-0.6c-0.3-0.3-0.3-0.7,0-0.9
	c0.3-0.3,0.7-0.3,0.9,0l1.9,1.9c0.3,0.2,0.4,0.7,0.1,1l-1.9,1.9c-0.3,0.3-0.7,0.3-0.9,0s-0.3-0.7,0-0.9l1.1-1.1
	c-1.4-0.1-2.8,0.2-4,1c-1.5,1-2.5,2.5-2.8,4.3c-0.1,0.4-0.4,0.6-0.7,0.5C64.1,75.9,63.8,75.5,63.9,75.2L63.9,75.2z M73.6,82.1
	c-1.6,0.6-3.5,0.6-5.1-0.3c-1.3-0.6-2.2-1.7-2.8-3l1.5,0.4c0.3,0.1,0.7-0.1,0.8-0.5c0.1-0.4-0.1-0.7-0.5-0.8l-2.7-0.7
	c-0.4-0.1-0.8,0.2-0.8,0.6l-0.7,2.5c-0.1,0.3,0.1,0.7,0.5,0.8c0.4,0.1,0.7-0.1,0.8-0.5l0.2-0.8c0.7,1.3,1.8,2.3,3.1,3
	c1.9,1,4.1,1.1,6.2,0.3c0.3-0.1,0.5-0.5,0.4-0.8C74.3,82.1,73.9,81.9,73.6,82.1L73.6,82.1z M79.3,80.4c-0.1-0.3-0.4-0.6-0.8-0.5
	l-0.8,0.2c0.8-1.3,1.1-2.7,1-4.2c-0.1-2.1-1.1-4.1-2.8-5.5c-0.3-0.2-0.7-0.2-0.9,0.1c-0.2,0.3-0.2,0.7,0.1,0.9
	c1.4,1.1,2.2,2.8,2.3,4.5c0.1,1.4-0.3,2.8-1.2,3.9L76,78.5c-0.1-0.3-0.4-0.6-0.8-0.5c-0.3,0.1-0.6,0.4-0.5,0.8l0.7,2.7
	c0.1,0.4,0.5,0.6,0.9,0.4l2.5-0.7C79.2,81.1,79.4,80.7,79.3,80.4L79.3,80.4z"/>
</svg>
