<svg id="Capa_1" enable-background="new 0 0 512 512" height="512" viewBox="0 0 512 512" width="512" xmlns="http://www.w3.org/2000/svg"><g><g><path d="m454 281.17c-4.122 0-7.889-2.619-9.347-6.468-1.456-3.845-.346-8.336 2.753-11.048 3.188-2.79 7.922-3.248 11.591-1.137 3.672 2.113 5.633 6.461 4.803 10.613-.923 4.616-5.091 8.04-9.8 8.04z"/><g><g><path d="m475.567 460.814h-93.555c-5.523 0-10-4.477-10-10s4.477-10 10-10h93.555c9.061 0 16.433-7.372 16.433-16.433v-107.257c0-5.523 4.477-10 10-10s10 4.477 10 10v107.256c0 20.09-16.344 36.434-36.433 36.434z"/></g><g><path d="m10 204.876c-5.523 0-10-4.477-10-10v-107.256c0-20.09 16.344-36.433 36.433-36.433h93.555c5.523 0 10 4.477 10 10s-4.477 10-10 10h-93.555c-9.061 0-16.433 7.372-16.433 16.433v107.257c0 5.522-4.477 9.999-10 9.999z"/></g><g><path d="m502 204.876c-5.523 0-10-4.477-10-10v-107.256c0-9.061-7.372-16.433-16.433-16.433h-93.555c-5.523 0-10-4.477-10-10s4.477-10 10-10h93.555c20.089 0 36.433 16.343 36.433 36.433v107.257c0 5.522-4.477 9.999-10 9.999z"/></g><g><path d="m129.988 460.814h-93.555c-20.089 0-36.433-16.344-36.433-36.434v-107.256c0-5.523 4.477-10 10-10s10 4.477 10 10v107.256c0 9.061 7.372 16.433 16.433 16.433h93.555c5.523 0 10 4.477 10 10s-4.477 10.001-10 10.001z"/></g></g><path d="m454 236.131c5.523 0 10-4.477 10-10v-116.944c0-5.523-4.477-10-10-10h-396c-5.523 0-10 4.477-10 10v293.626c0 5.523 4.477 10 10 10h396c5.523 0 10-4.477 10-10v-86.234c0-5.523-4.477-10-10-10s-10 4.477-10 10v76.234h-19.571l-110.935-158.78c-1.871-2.677-4.931-4.272-8.197-4.272s-6.327 1.595-8.197 4.272l-55.917 80.033-24.929-35.68c-1.871-2.677-4.931-4.272-8.197-4.272s-6.327 1.595-8.197 4.272l-79.946 114.427h-51.914v-273.626h376v106.944c0 5.523 4.477 10 10 10zm-148.704 21.089 94.735 135.593h-103.831l-42.819-61.287zm-97.24 44.354 63.746 91.239h-127.492z"/><path d="m157.68 259.422c-27.019 0-49-21.982-49-49 0-27.019 21.981-49 49-49 27.018 0 49 21.981 49 49 0 27.018-21.981 49-49 49zm0-78c-15.991 0-29 13.009-29 29s13.009 29 29 29 29-13.009 29-29-13.009-29-29-29z"/></g></g></svg>